<?xml version="1.0" encoding="UTF-8"?><svg id="_レイヤー_2" xmlns="http://www.w3.org/2000/svg" viewBox="0 0 33.02 29.42"><defs><style>.cls-1{fill:#32abaf;}</style></defs><g id="_レイヤー_1-2"><path class="cls-1" d="M9.76,18.32c-.83,0-1.76-.43-2.47-1.05l-1.31,1.56c1.03.96,2.42,1.46,3.73,1.46,2.4,0,3.79-1.45,3.79-3.12,0-1.42-.77-2.24-2-2.74l-1.28-.52c-.88-.35-1.54-.57-1.54-1.19,0-.58.5-.9,1.28-.9s1.43.28,2.09.79l1.15-1.43c-.87-.86-2.08-1.32-3.24-1.32-2.09,0-3.58,1.33-3.58,3,0,1.46.99,2.32,2.03,2.74l1.31.56c.88.36,1.45.56,1.45,1.2,0,.6-.46.97-1.41.97Z"/><polygon class="cls-1" points="19.41 20.1 19.41 11.94 22.18 11.94 22.18 10.04 14.36 10.04 14.36 11.94 17.13 11.94 17.13 20.1 19.41 20.1"/><path class="cls-1" d="M32.6,14.96l-3.87-4.03s-.08-.05-.12-.08c-.07-.06-.15-.11-.23-.16-.12-.07-.24-.11-.37-.15-.04-.01-.09-.02-.13-.03-.17-.03-.34-.02-.51,0,0,0-.02,0-.03,0,0,0,0,0-.01,0-.16.03-.31.1-.45.19-.04.02-.08.04-.11.07-.05.04-.11.06-.16.1l-4.03,3.87c-.6.57-.62,1.52-.04,2.12.57.6,1.52.61,2.12.04l1.75-1.68c-.09,2.05-.7,4.04-1.84,5.81-1.68,2.61-4.3,4.42-7.37,5.09-3.07.67-6.21.11-8.82-1.56-5.44-3.49-7.02-10.76-3.53-16.19,3.49-5.44,10.75-7.02,16.19-3.53.89.57,1.69,1.26,2.39,2.04.55.62,1.5.67,2.12.12.62-.55.67-1.5.12-2.12-.88-.98-1.89-1.85-3.01-2.56C15.84-2.06,6.72-.07,2.33,6.76-2.06,13.59-.07,22.71,6.76,27.1c2.38,1.53,5.1,2.32,7.89,2.32,1.06,0,2.13-.11,3.2-.35,3.86-.84,7.15-3.11,9.26-6.4,1.32-2.05,2.09-4.35,2.29-6.72l1.05,1.09c.29.31.69.46,1.08.46s.75-.14,1.04-.42c.6-.57.62-1.52.04-2.12Z"/></g></svg>