<?xml version="1.0" encoding="UTF-8"?><svg id="_レイヤー_2" xmlns="http://www.w3.org/2000/svg" viewBox="0 0 34 34"><defs><style>.cls-1{fill:#fff;}</style></defs><g id="_レイヤー_1-2"><path class="cls-1" d="M32,34H2c-1.1,0-2-.9-2-2V10.84c0-.56.24-1.1.65-1.48L10.32.52c.37-.34.85-.52,1.35-.52h20.33c1.1,0,2,.9,2,2v30c0,1.1-.9,2-2,2ZM4,30h26V4H12.45l-8.45,7.72v18.28Z"/><path class="cls-1" d="M7.55,15.72h2.69c1.72,0,3.11.62,3.11,2.51s-1.4,2.65-3.06,2.65h-.97v2.65h-1.77v-7.82ZM10.18,19.48c.97,0,1.43-.43,1.43-1.25s-.52-1.11-1.48-1.11h-.81v2.36h.86Z"/><path class="cls-1" d="M14.48,15.72h2.21c2.39,0,3.93,1.19,3.93,3.87s-1.54,3.94-3.83,3.94h-2.31v-7.82ZM16.58,22.11c1.33,0,2.22-.65,2.22-2.52s-.9-2.45-2.22-2.45h-.34v4.97h.34Z"/><path class="cls-1" d="M22.01,15.72h4.93v1.48h-3.17v1.81h2.7v1.48h-2.7v3.04h-1.77v-7.82Z"/></g></svg>