<?xml version="1.0" encoding="UTF-8"?><svg id="_レイヤー_2" xmlns="http://www.w3.org/2000/svg" viewBox="0 0 34 34"><defs><style>.cls-1{fill:#fff;}</style></defs><g id="_レイヤー_1-2"><path class="cls-1" d="M32,14.35c-1.1,0-2,.9-2,2v13.65H4v-13.65c0-1.1-.9-2-2-2s-2,.9-2,2v15.65c0,1.1.9,2,2,2h30c1.1,0,2-.9,2-2v-15.65c0-1.1-.9-2-2-2Z"/><path class="cls-1" d="M15.58,25.59c.09.09.19.18.3.25.03.02.06.03.08.05.08.05.17.1.26.14.04.02.08.02.12.04.08.03.17.06.25.08.13.03.26.04.4.04s.27-.01.4-.04c.09-.02.17-.05.25-.08.04-.01.08-.02.12-.04.09-.04.18-.09.26-.14.03-.02.06-.03.08-.05.11-.07.21-.16.3-.25l8.4-8.4c.78-.78.78-2.05,0-2.83-.78-.78-2.05-.78-2.83,0l-4.98,4.98V2c0-1.1-.9-2-2-2s-2,.9-2,2v17.35l-4.98-4.98c-.78-.78-2.05-.78-2.83,0-.78.78-.78,2.05,0,2.83l8.4,8.4Z"/></g></svg>